# xmcd CD database file
#
# Track frame offsets:
#	150
#	17265
#	33855
#	50715
#	67842
#	103854
#	128201
#	141714
#	163546
#	185222
#	210221
#	225867
#	248303
#	273862
#	292133
#
# Disc length: 4172 seconds
#
# Revision: 0
# Processed by: cddbd v1.5.2PL0 Copyright (c) Steve Scherf et al.
# Submitted via: CDex 1.51
#
DISCID=cc104a0f
DTITLE=Ron Korb - World of Ron Korb
DYEAR=2008
DGENRE=Jazz
TTITLE0=Shadow Montage
TTITLE1=The Noble Land
TTITLE2=The Tale of Genji
TTITLE3=Floating Spirit
TTITLE4=Heart of Passion
TTITLE5=Dark Eyes
TTITLE6=Cuchulainn
TTITLE7=Faith
TTITLE8=The Day I Lost My Love
TTITLE9=Golden Robes
TTITLE10=Sugo Song
TTITLE11=Warrior Dance
TTITLE12=Medieval East
TTITLE13=Sacred Spring
TTITLE14=Green Eyed Maiden
EXTD=YEAR: 2008
EXTT0=
EXTT1=
EXTT2=
EXTT3=
EXTT4=
EXTT5=
EXTT6=
EXTT7=
EXTT8=
EXTT9=
EXTT10=
EXTT11=
EXTT12=
EXTT13=
EXTT14=
PLAYORDER=
